<?xml version="1.0" encoding="UTF-8"?>
<svg id="Layer_1" data-name="Layer 1" xmlns="http://www.w3.org/2000/svg" viewBox="0 0 308.03 280">
  <defs>
    <style>
      .cls-1 {
        fill: #ffc12b;
      }
    </style>
  </defs>
  <path class="cls-1" d="M154.24,14.39c-68.65,0-124.3,55.65-124.3,124.3s55.65,124.3,124.3,124.3,124.3-55.65,124.3-124.3S222.89,14.39,154.24,14.39ZM209.82,215.93c-15.02-4.3-15.71-38.61-22.02-38.5-6.47.12-6.6,34.93-20.16,38.5-3.99,1.05-8.3-.83-12.29-3.78-3.96,2.35-8.63,4.03-13.09,2.76-15.02-4.3-15.71-38.61-22.02-38.5-6.47.12-6.6,34.93-20.16,38.5-5.79,1.52-12.23-3.12-17.42-8.24,5.41-40.72,14.86-73.58,24.99-89.93-8.27-4.67-13.85-13.56-13.85-23.75,0-15.07,12.22-27.29,27.29-27.29s27.29,12.22,27.29,27.29c0,10.14-5.53,18.99-13.73,23.68,7.71,12.66,14.87,35.31,19.95,64.11,5.44-28.14,12.83-50.45,20.61-63.02-8.27-4.67-13.85-13.56-13.85-23.75,0-15.07,12.22-27.29,27.29-27.29s27.29,12.22,27.29,27.29c0,10.14-5.53,18.99-13.73,23.68,10.15,16.67,19.36,50.66,24.1,93.21-4.49,3.32-10.67,6.69-16.49,5.03Z"/>
</svg>